<?xml version="1.0" encoding="UTF-8"?>
<svg id="_圖層_2" data-name="圖層 2" xmlns="http://www.w3.org/2000/svg" viewBox="0 0 988.29 1">
  <defs>
    <style>
      .cls-1 {
        fill: gray;
      }
    </style>
  </defs>
  <g id="_文字" data-name="文字">
    <path class="cls-1" d="M988.29,1h-4.29V0h4.29V1Zm-16.29,0h-12V0h12V1Zm-24,0h-12V0h12V1Zm-24,0h-12V0h12V1Zm-24,0h-12V0h12V1Zm-24,0h-12V0h12V1Zm-24,0h-12V0h12V1Zm-24,0h-12V0h12V1Zm-24,0h-12V0h12V1Zm-24,0h-12V0h12V1Zm-24,0h-12V0h12V1Zm-24,0h-12V0h12V1Zm-24,0h-12V0h12V1Zm-24,0h-12V0h12V1Zm-24,0h-12V0h12V1Zm-24,0h-12V0h12V1Zm-24,0h-12V0h12V1Zm-24,0h-12V0h12V1Zm-24,0h-12V0h12V1Zm-24,0h-12V0h12V1Zm-24,0h-12V0h12V1Zm-24,0h-12V0h12V1Zm-24,0h-12V0h12V1Zm-24,0h-12V0h12V1Zm-24,0h-12V0h12V1Zm-24,0h-12V0h12V1Zm-24,0h-12V0h12V1Zm-24,0h-12V0h12V1Zm-24,0h-12V0h12V1Zm-24,0h-12V0h12V1Zm-24,0h-12V0h12V1Zm-24,0h-12V0h12V1Zm-24,0h-12V0h12V1Zm-24,0h-12V0h12V1Zm-24,0h-12V0h12V1Zm-24,0h-12V0h12V1Zm-24,0h-12V0h12V1Zm-24,0h-12V0h12V1Zm-24,0h-12V0h12V1Zm-24,0h-12V0h12V1Zm-24,0h-12V0h12V1ZM12,1H0V0H12V1Z"/>
  </g>
</svg>