<?xml version="1.0" encoding="UTF-8"?>
<svg id="_圖層_2" data-name="圖層 2" xmlns="http://www.w3.org/2000/svg" xmlns:xlink="http://www.w3.org/1999/xlink" viewBox="0 0 93.16 22.15">
  <defs>
    <style>
      .cls-1 {
        fill: #5186c4;
      }

      .cls-2 {
        stroke: #fff;
        stroke-miterlimit: 10;
        stroke-width: 2px;
      }

      .cls-2, .cls-3 {
        fill: none;
      }

      .cls-4 {
        fill: #324d99;
      }

      .cls-5 {
        clip-path: url(#clippath);
      }
    </style>
    <clipPath id="clippath">
      <rect class="cls-3" x=".29" y=".04" width="18.96" height="18.96" rx="2.42" ry="2.42"/>
    </clipPath>
  </defs>
  <g id="_圖層_1-2" data-name="圖層 1">
    <g id="_圖層_2-2" data-name="圖層 2">
      <g id="_圖層_1-2" data-name="圖層 1-2">
        <g class="cls-5">
          <g>
            <rect class="cls-1" x=".29" y=".04" width="18.96" height="18.96" rx="2.62" ry="2.62"/>
            <polyline class="cls-2" points=".71 .71 9.77 9.77 18.83 .71"/>
            <line class="cls-2" x1="9.77" y1="8.61" x2="9.77" y2="19.49"/>
            <rect class="cls-3" x=".29" y=".04" width="18.96" height="18.96" rx="2.62" ry="2.62"/>
            <path class="cls-4" d="M9.78,9.11L18.62,.26c-.07-.08-.13-.15-.21-.22H1.11c-.06,.06-.13,.13-.18,.2L9.78,9.11Z"/>
          </g>
        </g>
        <path class="cls-4" d="M34.44,5.56v.79c.03,.22-.13,.41-.34,.44,0,0,0,0,0,0h-.3l-.42,.07-2.9,4.88v2.74l.43,.07h.29c.22,.02,.38,.22,.36,.44v.84h-4.06v-.84c-.02-.22,.14-.42,.36-.44h.3l.42-.07v-2.63l-2.91-4.88-.42-.07h-.3c-.22-.02-.39-.21-.37-.44,0-.04,.01-.07,.02-.11v-.84h3.84v.84c.02,.22-.14,.42-.36,.44h-.2l-.21,.06,1.36,2.47c.12,.21,.21,.41,.29,.58s.15,.37,.22,.55c.06-.19,.13-.37,.21-.55,.08-.19,.17-.38,.28-.58l1.36-2.47h-.35c-.22,.01-.42-.16-.43-.38,0-.04,0-.08,.01-.12v-.84h3.83v.05Z"/>
        <path class="cls-4" d="M38.52,8.67c.77,.29,1.37,.91,1.65,1.68,.17,.45,.24,.93,.23,1.4,0,.11,0,.22,0,.33,0,.08-.03,.15-.07,.22-.03,.04-.08,.08-.13,.09-.07,.01-.13,.01-.2,0h-4.48c0,.6,.21,1.19,.6,1.65,.37,.36,.88,.55,1.39,.52,.25,0,.5-.02,.74-.09,.18-.06,.36-.13,.53-.22l.41-.22c.1-.06,.22-.1,.34-.1,.06-.02,.13-.02,.19,0,.05,.03,.09,.07,.13,.12l.52,.65c-.19,.21-.41,.4-.65,.57-.24,.15-.5,.28-.77,.37-.26,.09-.53,.15-.8,.19-.26,.05-.52,.07-.79,.07-.48,0-.96-.09-1.42-.26-.44-.16-.83-.42-1.16-.74-.34-.35-.6-.77-.77-1.23-.19-.54-.28-1.11-.28-1.68,0-.48,.08-.95,.24-1.4,.15-.43,.39-.82,.7-1.16,.32-.32,.7-.58,1.13-.74,.46-.2,.97-.3,1.47-.29,.42,.03,.84,.12,1.23,.29Zm-2.44,1.47c-.31,.34-.51,.77-.56,1.23h3.34c0-.22-.04-.43-.1-.64-.04-.2-.12-.39-.24-.56-.13-.16-.3-.28-.49-.36-.22-.09-.45-.14-.68-.13-.45-.03-.9,.12-1.23,.43l-.03,.02Z"/>
        <path class="cls-4" d="M48.65,12.16c0,.51-.07,1.03-.22,1.52-.14,.42-.36,.81-.64,1.16-.27,.34-.6,.61-.99,.8-.4,.19-.84,.29-1.29,.29-.36,0-.72-.06-1.06-.2-.29-.12-.55-.3-.77-.52v1.59l.42,.07h.3c.22,.03,.37,.22,.35,.44v.84h-3.92v-.77c-.02-.22,.13-.41,.35-.44h.31l.5-.14v-6.85l-.48-.12h-.31c-.22-.03-.37-.22-.35-.44v-.84h2.15c.1,0,.2,.02,.29,.08,.09,.06,.14,.14,.16,.24l.14,.67c.28-.33,.63-.61,1.01-.82,.42-.22,.88-.32,1.35-.31,.77-.02,1.49,.35,1.94,.98,.25,.35,.44,.74,.56,1.16,.14,.52,.2,1.06,.2,1.6Zm-1.82,0c0-.36-.03-.72-.1-1.08-.05-.26-.14-.5-.29-.72-.12-.17-.28-.32-.46-.41-.2-.09-.41-.13-.63-.13-.33-.01-.65,.07-.93,.23-.28,.17-.52,.39-.72,.65v3.26c.16,.22,.38,.39,.63,.51,.24,.1,.5,.15,.75,.15,.25,0,.49-.05,.72-.15,.22-.1,.41-.26,.55-.46,.16-.23,.28-.49,.35-.77,.09-.36,.14-.72,.14-1.09Z"/>
        <path class="cls-4" d="M65.32,6.86h-.22l-.42,.07v7.54l.42,.07h.3c.22,.02,.38,.22,.36,.44v.84h-4.03v-.84c-.01-.22,.14-.41,.36-.44l.93-.13v-5.63c-.01-.15-.01-.3,0-.45l-3.11,5.8c-.06,.13-.16,.24-.28,.31-.12,.07-.26,.11-.39,.1h-.27c-.13,0-.26-.02-.37-.08-.12-.08-.21-.19-.28-.31l-3.15-5.8v6.12l.93,.13c.22,.03,.37,.22,.35,.44v.84h-4v-.84c-.01-.22,.14-.41,.36-.44h.3l.42-.07V6.97l-.42-.07h-.3c-.22-.01-.4-.2-.38-.43,0-.04,.01-.08,.02-.12v-.84h2.74c.06-.01,.12-.01,.17,0,.05,.02,.1,.05,.14,.09,.05,.05,.09,.1,.12,.16l3.06,5.71c.09,.15,.17,.31,.23,.48,.07,.16,.14,.33,.2,.49l.21-.5c.07-.16,.15-.32,.23-.48l3.04-5.7c.03-.06,.07-.12,.12-.16,.03-.04,.08-.08,.13-.09,.06-.01,.12-.01,.17,0h2.74v.84c.02,.22-.14,.42-.36,.44l-.07,.07Z"/>
        <path class="cls-4" d="M71.02,8.67c.38,.14,.72,.36,1,.65,.29,.29,.51,.65,.65,1.03,.16,.45,.24,.93,.23,1.4,0,.11,0,.22,0,.33,0,.08-.03,.15-.07,.22-.03,.05-.08,.08-.13,.09-.07,.01-.13,.01-.2,0h-4.48c0,.6,.21,1.19,.6,1.65,.37,.36,.88,.55,1.39,.52,.25,0,.5-.02,.74-.09,.18-.06,.36-.13,.53-.22l.41-.22c.1-.06,.22-.1,.34-.1,.06-.02,.13-.02,.19,0l.14,.12,.51,.65c-.2,.22-.42,.41-.66,.57-.24,.15-.49,.28-.75,.37-.26,.09-.53,.15-.8,.19-.26,.05-.52,.07-.79,.07-.48,0-.96-.09-1.42-.26-.44-.16-.83-.42-1.16-.74-.34-.35-.6-.77-.77-1.23-.19-.54-.28-1.11-.28-1.68,0-.48,.08-.95,.24-1.4,.15-.43,.39-.82,.7-1.16,.32-.34,.72-.6,1.16-.77,.46-.2,.96-.3,1.46-.29,.42,.04,.82,.14,1.21,.31Zm-2.44,1.47c-.31,.34-.51,.77-.56,1.23h3.3c0-.22-.03-.43-.09-.64-.03-.2-.1-.39-.21-.56-.13-.16-.3-.28-.49-.36-.21-.09-.44-.14-.67-.13-.46-.04-.91,.12-1.24,.43l-.03,.02Z"/>
        <path class="cls-4" d="M81.34,15.81h-2.07c-.1,0-.2-.02-.29-.08-.08-.06-.14-.15-.16-.24l-.14-.67c-.28,.33-.63,.61-1.01,.82-.41,.22-.87,.32-1.33,.31-.77,0-1.49-.36-1.95-.98-.25-.35-.44-.74-.55-1.16-.14-.51-.21-1.05-.2-1.58,0-.52,.07-1.03,.22-1.52,.14-.42,.35-.81,.63-1.16,.26-.34,.6-.61,.99-.8,.41-.22,.88-.34,1.35-.35,.36,0,.71,.06,1.04,.2,.29,.12,.56,.3,.78,.52v-2.44l-.43-.07h-.3c-.22-.02-.37-.22-.35-.44,0,0,0,0,0,0v-.84h2.74V14.48h.63c.22,.02,.38,.22,.36,.44l.05,.89Zm-2.74-5.41c-.18-.22-.4-.4-.66-.51-.24-.1-.5-.15-.75-.15-.25,0-.49,.05-.72,.15-.22,.11-.4,.27-.55,.46-.16,.23-.28,.49-.35,.77-.09,.38-.13,.77-.12,1.16-.01,.36,.02,.73,.1,1.08,.05,.26,.14,.5,.29,.72,.12,.17,.28,.32,.46,.41,.2,.09,.41,.13,.63,.13,.32,0,.65-.07,.93-.23,.28-.17,.53-.39,.73-.65v-3.33Z"/>
        <path class="cls-4" d="M85.75,15v.84h-3.91v-.84c-.02-.22,.14-.42,.36-.44h.29l.43-.07v-4.54l-.43-.12h-.29c-.22-.02-.38-.22-.36-.44v-.84h2.83v5.92l.42,.07h.3c.22,.02,.38,.22,.36,.45,0,0,0,0,0,0Z"/>
        <path class="cls-4" d="M16.92,21.97s-.04,.07-.07,.1c-.03,.03-.06,.05-.1,.06-.04,.02-.08,.02-.12,.02-.04,0-.08,0-.12-.03-.04-.02-.07-.04-.1-.06-.03-.03-.05-.06-.06-.1-.02-.04-.03-.08-.03-.12,0-.04,0-.08,.03-.12,.03-.08,.09-.14,.16-.16,.04-.02,.08-.03,.12-.03,.04,0,.08,0,.12,.03,.04,.02,.07,.04,.1,.06,.03,.03,.05,.06,.07,.1,.02,.04,.03,.08,.03,.12,0,.04,0,.08-.02,.12Z"/>
        <path class="cls-4" d="M93.14,14.99v.84h-1.67c-.13,0-.27-.02-.38-.08-.11-.07-.19-.18-.22-.3l-.12-.51c-.19,.16-.37,.31-.55,.44-.2,.1-.4,.19-.62,.27-.19,.09-.39,.15-.59,.19-.24,.05-.48,.07-.72,.07-.29,0-.57-.04-.85-.13-.25-.07-.48-.2-.67-.37-.19-.17-.34-.39-.44-.63-.11-.27-.16-.57-.15-.86,0-.29,.08-.57,.22-.81,.17-.3,.42-.55,.72-.73,.41-.23,.86-.4,1.32-.49,.68-.16,1.39-.24,2.09-.22v-.43c.03-.39-.08-.78-.31-1.09-.23-.24-.56-.37-.89-.35-.24,0-.49,.03-.72,.09-.17,.06-.33,.13-.49,.22l-.39,.23c-.12,.06-.25,.09-.38,.09-.11,0-.22-.03-.31-.09-.08-.06-.15-.13-.2-.22l-.33-.57c.83-.76,1.92-1.18,3.04-1.16,.4,0,.79,.06,1.16,.21,.32,.13,.61,.33,.85,.58,.23,.26,.41,.56,.53,.89,.12,.37,.18,.77,.17,1.16v3.25h.53c.22,.02,.39,.21,.37,.44,0,.02,0,.05-.01,.07Zm-2.59-2.25c-.43,0-.86,.02-1.29,.09-.28,.05-.56,.13-.82,.24-.18,.08-.33,.2-.44,.36-.09,.12-.14,.27-.14,.43-.02,.26,.08,.51,.28,.67,.21,.14,.47,.21,.72,.2,.16,.02,.33,.02,.49,0,.15-.03,.29-.07,.43-.14,.14-.07,.27-.15,.39-.24,.14-.1,.26-.21,.38-.34v-1.28Z"/>
      </g>
    </g>
  </g>
</svg>