<?xml version="1.0" encoding="UTF-8"?>
<svg id="_圖層_2" data-name="圖層 2" xmlns="http://www.w3.org/2000/svg" viewBox="0 0 497.05 96.35">
  <defs>
    <style>
      .cls-1 {
        fill: #fff;
        font-family: DFLiSong-Md-WIN-BF, DFLiSong-Md;
        font-size: 33px;
      }
    </style>
  </defs>
  <g id="_圖層_1-2" data-name="圖層 1">
    <g>
      <text class="cls-1" transform="translate(12.01 44.94) rotate(-22.98) scale(.8 1)"><tspan x="0" y="0">s</tspan></text>
      <text class="cls-1" transform="translate(52 32.05) rotate(-10.25) scale(.8 1)"><tspan x="0" y="0">e</tspan></text>
      <text class="cls-1" transform="translate(94.14 26.77) rotate(-1.73) scale(.8 1)"><tspan x="0" y="0">r</tspan></text>
      <text class="cls-1" transform="translate(136.73 27.34) rotate(5.22) scale(.8 1)"><tspan x="0" y="0">v</tspan></text>
      <text class="cls-1" transform="translate(178.94 33.04) rotate(12.6) scale(.8 1)"><tspan x="0" y="0">i</tspan></text>
      <text class="cls-1" transform="translate(220.46 43.68) rotate(16.74) scale(.8 1)"><tspan x="0" y="0">c</tspan></text>
      <text class="cls-1" transform="translate(261.74 56.46) rotate(17.32) scale(.8 1)"><tspan x="0" y="0">e</tspan></text>
      <text class="cls-1" transform="translate(302.96 68.91) rotate(15.31) scale(.8 1)"><tspan x="0" y="0">i</tspan></text>
      <text class="cls-1" transform="translate(344.61 79.37) rotate(11.43) scale(.8 1)"><tspan x="0" y="0">t</tspan></text>
      <text class="cls-1" transform="translate(388.34 86.79) rotate(6.02) scale(.8 1)"><tspan x="0" y="0">e</tspan></text>
      <text class="cls-1" transform="translate(432.89 89.8) rotate(-.21) scale(.8 1)"><tspan x="0" y="0">m</tspan></text>
      <text class="cls-1" transform="translate(477.57 87.87) rotate(-6.63) scale(.8 1)"><tspan x="0" y="0">s</tspan></text>
    </g>
  </g>
</svg>