<?xml version="1.0" encoding="UTF-8"?>
<svg id="_圖層_2" data-name="圖層 2" xmlns="http://www.w3.org/2000/svg" viewBox="0 0 457.08 106.52">
  <defs>
    <style>
      .cls-1 {
        fill: #fff;
        font-family: CormorantGaramond-Medium, 'Cormorant Garamond';
        font-size: 46px;
      }
    </style>
  </defs>
  <g id="_圖層_1-2" data-name="圖層 1">
    <g>
      <text class="cls-1" transform="translate(17.16 53.7) rotate(-22)"><tspan x="0" y="0">s</tspan></text>
      <text class="cls-1" transform="translate(49.42 42.94) rotate(-10.19)"><tspan x="0" y="0">e</tspan></text>
      <text class="cls-1" transform="translate(86.74 37.8) rotate(-1.87)"><tspan x="0" y="0">r</tspan></text>
      <text class="cls-1" transform="translate(122.6 37.75) rotate(5.05)"><tspan x="0" y="0">v</tspan></text>
      <text class="cls-1" transform="translate(161.28 42.45) rotate(11.97)"><tspan x="0" y="0">i</tspan></text>
      <text class="cls-1" transform="translate(191.94 49.75) rotate(16.3)"><tspan x="0" y="0">c</tspan></text>
      <text class="cls-1" transform="translate(228.47 60.81) rotate(17.43)"><tspan x="0" y="0">e</tspan></text>
      <text class="cls-1" transform="translate(265.04 72.12) rotate(16.05)"><tspan x="0" y="0">i</tspan></text>
      <text class="cls-1" transform="translate(295.53 80.5) rotate(13.14)"><tspan x="0" y="0">t</tspan></text>
      <text class="cls-1" transform="translate(330.1 87.88) rotate(8.53)"><tspan x="0" y="0">e</tspan></text>
      <text class="cls-1" transform="translate(369.63 93.06) rotate(1.21)"><tspan x="0" y="0">m</tspan></text>
      <text class="cls-1" transform="translate(425.9 92.22) rotate(-6.31)"><tspan x="0" y="0">s</tspan></text>
    </g>
  </g>
</svg>