<?xml version="1.0" encoding="UTF-8"?>
<svg id="_圖層_2" data-name="圖層 2" xmlns="http://www.w3.org/2000/svg" xmlns:xlink="http://www.w3.org/1999/xlink" viewBox="0 0 275.22 148.29">
  <defs>
    <style>
      .cls-1 {
        filter: url(#drop-shadow-1);
      }
    </style>
    <filter id="drop-shadow-1" filterUnits="userSpaceOnUse">
      <feOffset dx="-3.58" dy="3.58"/>
      <feGaussianBlur result="blur" stdDeviation="8.36"/>
      <feFlood flood-color="#301d0d" flood-opacity=".1"/>
      <feComposite in2="blur" operator="in"/>
      <feComposite in="SourceGraphic"/>
    </filter>
  </defs>
  <g id="_圖層_1-2" data-name="圖層 1">
    <g class="cls-1">
      <path d="M13.91,2.93l2.36,.42-5.24,45.17c-.38,3.44-.06,6.19,.99,8.25,1.04,2.06,2.68,3.2,4.92,3.42,.16,.01,.23,.21,.19,.6-.04,.38-.14,.57-.3,.55-1.47-.14-2.62-.28-3.43-.42l-4.5-.53-5.17-.4c-.88-.02-2.06-.1-3.53-.24-.16-.02-.23-.21-.19-.6,.04-.38,.14-.57,.3-.55,2.24,.21,4.11-.6,5.61-2.46,1.5-1.85,2.44-4.46,2.82-7.84L13.91,2.93Zm52.54,62.58c-.04,.38-.11,.57-.22,.56-1.86-.18-3.33-.35-4.42-.52l-6.05-.68-6.15-.49c-1.04-.04-2.47-.14-4.27-.31-.16-.02-.23-.22-.19-.6,.04-.38,.14-.57,.3-.55,1.75,.17,3.06,.12,3.94-.15,.88-.27,1.5-.84,1.86-1.71,.36-.87,.57-2.26,.65-4.19l2.18-42.67,4.91-7.26-26.37,55.22c-.13,.25-.36,.35-.69,.32-.33-.03-.54-.18-.62-.45L13.2,8.66c-.87-2.46-1.83-4.29-2.91-5.49-1.07-1.2-2.37-1.87-3.9-2.02-.16-.02-.23-.21-.19-.6S6.34-.01,6.5,0l3.84,.46c.76,.14,1.74,.26,2.94,.38l4.35,.32c.5-.02,1.13,.01,1.89,.08,.71,.07,1.23,.41,1.56,1.02,.33,.61,.91,2.05,1.74,4.32l14.5,41.95-4.92,8.22L56.49,7.2c.41-.86,.81-1.45,1.2-1.77,.39-.32,.88-.45,1.48-.39,.49,.05,1.05,.13,1.67,.26,.62,.12,1.34,.23,2.16,.3l4.84,.37c.77,.01,1.87,.08,3.29,.22,.16,.02,.23,.21,.19,.6-.04,.38-.14,.57-.3,.55-2.57-.25-4.48,.18-5.75,1.29-1.26,1.1-1.96,2.93-2.1,5.5l-2.19,43.63c-.08,1.99-.01,3.44,.2,4.36,.21,.92,.7,1.58,1.46,1.98,.76,.4,1.99,.67,3.68,.83,.11,.01,.14,.21,.11,.59Z"/>
      <path d="M73.51,69.41c.14-.36,.29-.51,.44-.45,1.63,.64,2.88,.96,3.74,.95,.86,0,1.58-.39,2.18-1.16s1.25-2.04,1.95-3.83l16.28-41.42c.7-1.79,1.09-3.15,1.17-4.09,.07-.93-.21-1.72-.85-2.35-.64-.63-1.75-1.25-3.33-1.88-.15-.06-.16-.27-.02-.63s.29-.51,.44-.45l32.47,12.77c.51,.2,.66,.57,.45,1.11l-4.52,11.96c-.05,.12-.22,.16-.53,.1-.3-.05-.45-.18-.43-.38,.54-3.78,.17-6.89-1.11-9.32-1.29-2.43-3.51-4.27-6.67-5.52l-2.3-.9c-1.53-.6-2.81-.65-3.83-.16-1.02,.49-1.85,1.55-2.48,3.16l-16.11,40.97c-.68,1.73-.9,3.12-.67,4.18,.23,1.06,.96,1.82,2.19,2.31l2.53,.99c3.98,1.57,7.55,1.87,10.7,.9,3.15-.96,6.07-3.22,8.77-6.78,.05-.12,.17-.14,.38-.06,.15,.06,.28,.16,.37,.3,.09,.14,.13,.24,.1,.3-2.34,4.45-4.26,8.59-5.76,12.4-.19,.48-.4,.79-.63,.94-.24,.15-.58,.13-1.04-.05l-33.85-13.31c-.15-.06-.16-.27-.02-.63Zm37.28-14.42c-1.06-2.03-3.09-3.64-6.1-4.83l-10.34-4.06,.99-2.5,10.42,4.09c2.96,1.16,5.47,1.46,7.52,.89,2.05-.57,3.5-1.93,4.34-4.08,.07-.18,.24-.21,.53-.1,.28,.11,.39,.25,.32,.43l-3.24,8.02-1.61,4.32c-.7,2.07-1.28,3.7-1.75,4.89-.05,.12-.22,.12-.53,0-.31-.12-.44-.24-.39-.36,.96-2.44,.91-4.68-.14-6.72Z"/>
      <path d="M134.86,98.22c-.75-.47-1.68-1.03-2.79-1.69-1.11-.66-2.37-1.36-3.78-2.1l-5.43-2.75c-1-.46-2.33-1.12-3.98-1.99-.1-.05-.06-.25,.12-.59,.18-.34,.32-.49,.41-.43,1.55,.82,2.77,1.28,3.65,1.38,.88,.1,1.67-.19,2.37-.87,.7-.68,1.5-1.87,2.39-3.57l20.76-39.37c.9-1.7,1.42-3.02,1.57-3.95,.15-.93-.04-1.74-.58-2.43-.54-.68-1.56-1.42-3.06-2.21-.15-.08-.13-.29,.05-.62,.18-.34,.34-.47,.49-.4l3.81,2.12c2.17,1.29,3.91,2.28,5.22,2.97,1.99,1.05,4.07,2.04,6.25,2.97,2.58,1.22,4.31,2.06,5.18,2.52,4.9,2.58,8.66,6.02,11.27,10.29,2.61,4.28,3.93,8.92,3.96,13.93,.02,5.01-1.25,9.96-3.82,14.83-2.9,5.5-6.54,9.79-10.93,12.88-4.39,3.08-9.02,4.81-13.89,5.17-4.88,.36-9.5-.61-13.86-2.91-1.55-.82-3.35-1.88-5.4-3.17Zm15.38,2.41c3.35-.59,6.65-2.35,9.9-5.27,3.25-2.92,6.2-6.91,8.86-11.95,2.54-4.82,4.22-9.53,5.03-14.14s.66-8.66-.48-12.15c-1.13-3.5-3.23-6.05-6.29-7.66-3.01-1.59-5.25-2.33-6.73-2.24-1.48,.09-2.79,1.24-3.96,3.45l-20.18,38.26c-1.2,2.27-1.53,4.14-1,5.61,.53,1.47,2.25,2.98,5.16,4.51,3.11,1.64,6.33,2.16,9.68,1.57Z"/>
      <path d="M196.12,124.05c-.09,.93,.16,1.7,.77,2.3,.61,.6,1.72,1.24,3.34,1.92,.15,.06,.15,.27,0,.63-.15,.35-.3,.5-.45,.44-1.67-.7-2.97-1.28-3.91-1.74l-5.73-2.5-5.65-2.26c-1.04-.36-2.42-.91-4.14-1.63-.1-.04-.08-.24,.07-.6,.15-.35,.27-.51,.37-.47,1.62,.68,2.87,1.03,3.75,1.05,.88,.02,1.64-.34,2.28-1.08,.64-.74,1.33-2,2.07-3.77l17.19-41.05c.74-1.77,1.15-3.13,1.22-4.08,.07-.94-.21-1.74-.83-2.38-.62-.64-1.75-1.3-3.36-1.98-.1-.04-.08-.24,.07-.6,.15-.35,.27-.51,.38-.47l4.06,1.8c2.28,1.09,4.13,1.94,5.54,2.53,1.57,.66,3.54,1.41,5.92,2.27l3.91,1.53c.15,.06,.15,.27,0,.63-.15,.35-.3,.5-.45,.44-1.57-.66-2.81-.97-3.71-.93-.91,.04-1.67,.43-2.28,1.18-.61,.75-1.29,2.01-2.03,3.79l-17.11,40.88c-.77,1.83-1.2,3.21-1.29,4.15Z"/>
      <path d="M275.2,147.79c-.07,.38-.25,.54-.52,.49-1.08-.21-2.73-.61-4.97-1.18-2.34-.59-4.03-.99-5.05-1.2-1.35-.27-3-.53-4.96-.79-1.86-.24-3.32-.46-4.4-.67-.22-.04-.29-.25-.21-.63s.22-.54,.44-.5c1.4,.28,2.44,.3,3.13,.08,.69-.22,1.12-.77,1.29-1.66,.21-1.07,.03-2.97-.55-5.7l-8.9-41.06,5.56-7.33-24.26,38.22c-1.06,1.69-1.75,3.31-2.06,4.88-.45,2.26-.11,4.16,1.01,5.69,1.12,1.53,2.84,2.52,5.16,2.98,.27,.05,.37,.27,.29,.65-.08,.38-.25,.54-.52,.49-.97-.19-2.36-.53-4.16-1.02-2.02-.53-3.78-.95-5.29-1.24-1.45-.29-3.22-.57-5.29-.85-1.85-.24-3.35-.47-4.48-.69-.21-.04-.29-.25-.21-.63,.07-.38,.22-.54,.43-.5,1.51,.3,2.84,.19,4.01-.33,1.17-.52,2.44-1.61,3.83-3.26,1.39-1.65,3.14-4.16,5.27-7.53l26.42-41.51c.14-.17,.4-.21,.78-.14,.43,.08,.65,.23,.67,.43l11,50.39c1,4.84,1.95,8.22,2.85,10.17,.9,1.94,2.02,3.05,3.37,3.31,.27,.05,.37,.27,.29,.65Zm-38.58-32.23l23.25,4.6,.04,2.75-25.03-4.95,1.73-2.4Z"/>
    </g>
  </g>
</svg>