<?xml version="1.0" encoding="UTF-8"?>
<svg id="_圖層_2" data-name="圖層 2" xmlns="http://www.w3.org/2000/svg" viewBox="0 0 130.28 14.95">
  <g id="_圖層_1-2" data-name="圖層 1">
    <g>
      <path d="M2.08,10.92c0,.36,.07,.61,.21,.75,.13,.15,.46,.23,.99,.23v.52H0v-.52c.5,0,.82-.09,.95-.28,.13-.17,.2-.41,.2-.7V5.8c0-.17-.04-.34-.12-.49-.08-.15-.39-.23-.92-.23v-.54c.59,0,1.25-.17,1.98-.52v6.89Zm.01-10.69c.13,.16,.2,.37,.2,.62s-.06,.44-.2,.6c-.14,.17-.3,.26-.48,.26s-.35-.09-.48-.26c-.13-.15-.2-.35-.2-.6s.07-.45,.21-.62c.12-.15,.28-.23,.47-.23s.36,.08,.48,.23Z"/>
      <path d="M18.45,5.12c.49-.73,1.13-1.09,1.93-1.09,.51,0,.93,.18,1.26,.55,.34,.38,.51,.95,.51,1.72v4.94c0,.43,.24,.65,.73,.65v.52h-2.34v-.52c.45,0,.68-.22,.68-.65V6.3c0-.54-.11-.95-.33-1.22-.23-.27-.5-.41-.82-.41-.63,0-1.17,.46-1.62,1.38v5.18c0,.43,.24,.65,.73,.65v.52h-2.34v-.52c.45,0,.68-.22,.68-.65V5.74c0-.39-.16-.58-.47-.58h-.21v-.54c.58,0,1.12-.2,1.61-.58v1.09Z"/>
      <path d="M38.15,1.3v3.14h2.29v.5h-2.29v5.74c0,.4,.06,.69,.2,.86,.14,.19,.3,.29,.49,.29,.52,0,1.04-.35,1.55-1.04l.26,.2c-.31,.61-.66,1.02-1.04,1.23-.28,.22-.62,.32-1.04,.32-.39,0-.72-.15-.99-.44-.24-.31-.36-.79-.36-1.43V4.94h-1.71v-.5c.89,0,1.48-.24,1.76-.71,.28-.43,.42-1.24,.42-2.42h.47Z"/>
      <path d="M58.99,7.82h-4.7c-.03,.21-.04,.42-.04,.63,0,.78,.14,1.45,.42,2.01,.22,.42,.48,.75,.78,.99,.29,.16,.62,.24,.99,.24,.44,0,.85-.16,1.24-.47,.43-.37,.76-.77,.96-1.2l.25,.24c-.3,.7-.72,1.28-1.24,1.74-.39,.36-.86,.54-1.42,.54s-1.06-.17-1.51-.5c-.45-.4-.78-.86-.99-1.36-.28-.62-.42-1.36-.42-2.23,0-.78,.11-1.45,.33-2,.23-.75,.54-1.32,.92-1.71,.52-.48,1.09-.71,1.72-.71,1.53,0,2.43,1.26,2.71,3.79Zm-.99-.54c-.06-.99-.24-1.66-.55-2.03-.34-.42-.73-.63-1.17-.63-.42,0-.79,.21-1.12,.62-.34,.38-.57,.87-.7,1.46-.05,.19-.09,.39-.12,.58h3.66Z"/>
      <path d="M75.53,4.79c.16-.21,.3-.37,.44-.5,.21-.17,.42-.26,.62-.26s.41,.06,.57,.19c.17,.15,.26,.32,.26,.52s-.05,.35-.14,.47c-.11,.16-.24,.24-.38,.24-.11,0-.24-.1-.38-.31-.15-.23-.28-.34-.4-.34-.09,0-.21,.09-.37,.28,.35,.53,.52,1.18,.52,1.93,0,.82-.19,1.47-.57,1.95-.45,.52-1.02,.78-1.72,.78-.24,0-.48-.04-.7-.11-.5,.24-.76,.45-.76,.63,0,.13,.12,.22,.37,.26l2.45,.71c.52,.13,.94,.35,1.25,.65,.31,.35,.47,.76,.47,1.23,.03,.62-.16,1.05-.57,1.3-.49,.35-1.32,.52-2.5,.52-1.01,0-1.74-.17-2.19-.52-.42-.3-.62-.71-.62-1.23,0-.48,.2-.88,.59-1.22,.17-.16,.49-.3,.96-.42-.44-.13-.74-.28-.88-.45-.17-.16-.25-.33-.25-.49,0-.27,.07-.48,.2-.63,.17-.18,.52-.37,1.03-.57-.21-.14-.41-.33-.6-.57-.38-.48-.57-1.1-.57-1.88s.21-1.51,.62-2.08c.49-.56,1.06-.84,1.72-.84,.59,0,1.1,.25,1.54,.76Zm-3.14,7.54c-.18,.21-.27,.49-.27,.86s.17,.66,.49,.88c.32,.2,.82,.29,1.49,.29,.74,0,1.27-.11,1.6-.34,.29-.18,.43-.44,.43-.76,0-.27-.09-.49-.26-.67-.24-.21-.56-.36-.95-.46l-1.47-.39c-.54,.19-.89,.39-1.05,.58Zm2.5-3.53c.3-.39,.46-.99,.46-1.79s-.12-1.4-.35-1.77c-.28-.42-.61-.63-1-.63-.42,0-.75,.2-1,.6-.27,.41-.4,1.01-.4,1.8,0,.65,.15,1.21,.44,1.69,.2,.36,.52,.54,.96,.54,.37,0,.67-.15,.9-.44Z"/>
      <path d="M91.66,6.09c.22-.51,.5-.96,.83-1.35,.5-.48,1.02-.71,1.56-.71,.49,0,.86,.11,1.12,.32,.12,.11,.18,.26,.18,.46,0,.24-.05,.41-.16,.5-.14,.1-.29,.15-.47,.15-.12,0-.3-.07-.53-.21-.31-.16-.57-.24-.77-.24-.42,0-.82,.31-1.2,.93-.23,.35-.43,.82-.57,1.41v3.98c0,.38,.17,.57,.52,.57h.68v.52h-3.28v-.52h.52c.42,0,.62-.19,.62-.57V5.98c0-.52-.21-.78-.62-.78h-.52v-.52c.76,0,1.46-.22,2.08-.65v2.06Z"/>
      <path d="M112.09,4.68c.35,.35,.52,.91,.52,1.69v4.68c0,.39,.07,.58,.21,.58,.17,0,.35-.28,.52-.85l.31,.13c-.28,1.04-.69,1.56-1.25,1.56-.46,0-.7-.4-.73-1.19-.32,.33-.67,.61-1.04,.86-.45,.3-.94,.45-1.46,.45-.45-.09-.83-.3-1.13-.63-.32-.36-.48-.84-.48-1.45,0-.74,.19-1.34,.57-1.82,.35-.43,.8-.73,1.35-.89,.58-.26,1.31-.43,2.19-.5v-1.2c0-.48-.11-.87-.34-1.17-.22-.29-.56-.44-1.02-.44-.38,0-.69,.12-.94,.36-.24,.22-.36,.42-.36,.6,0,.05,.05,.11,.14,.18,.08,.11,.12,.24,.12,.41,0,.23-.07,.42-.21,.58-.15,.13-.32,.19-.52,.19s-.37-.09-.53-.26c-.1-.15-.14-.35-.14-.58,0-.43,.21-.85,.62-1.23,.56-.48,1.2-.71,1.93-.71s1.32,.22,1.67,.65Zm-1.35,6.86c.32-.23,.63-.51,.94-.86v-2.79c-1.41,.22-2.3,.57-2.68,1.06-.33,.42-.5,.89-.5,1.4s.12,.87,.35,1.15c.23,.27,.53,.41,.9,.41,.26,0,.59-.12,.99-.36Z"/>
      <path d="M129.08,10.92c0,.36,.07,.61,.21,.75,.13,.15,.46,.23,.99,.23v.52h-3.23v-.52c.48,0,.78-.09,.9-.28,.13-.17,.2-.41,.2-.7V2.01c0-.18-.04-.37-.12-.57-.08-.18-.39-.28-.92-.28V.65c.59,0,1.25-.22,1.98-.65V10.92Z"/>
    </g>
  </g>
</svg>