<?xml version="1.0" encoding="UTF-8"?>
<svg id="_圖層_2" data-name="圖層 2" xmlns="http://www.w3.org/2000/svg" viewBox="0 0 323.05 320.71">
  <defs>
    <style>
      .cls-1 {
        font-family: DFLiSong-Md-WIN-BF, DFLiSong-Md;
        font-size: 22px;
      }
    </style>
  </defs>
  <g id="_圖層_1-2" data-name="圖層 1">
    <text class="cls-1" transform="translate(42.06 304.69) rotate(-23.91) scale(.8 1)"><tspan x="0" y="0">p</tspan></text>
    <text class="cls-1" transform="translate(55.82 298.5) rotate(-25.37) scale(.8 1)"><tspan x="0" y="0">a</tspan></text>
    <text class="cls-1" transform="translate(69.41 291.96) rotate(-26.8) scale(.8 1)"><tspan x="0" y="0">r</tspan></text>
    <text class="cls-1" transform="translate(82.83 285.1) rotate(-28.23) scale(.8 1)"><tspan x="0" y="0">t</tspan></text>
    <text class="cls-1" transform="translate(96.06 277.9) rotate(-29.66) scale(.8 1)"><tspan x="0" y="0">n</tspan></text>
    <text class="cls-1" transform="translate(109.14 270.37) rotate(-31.12) scale(.8 1)"><tspan x="0" y="0">e</tspan></text>
    <text class="cls-1" transform="translate(121.99 262.51) rotate(-32.6) scale(.8 1)"><tspan x="0" y="0">r</tspan></text>
    <text class="cls-1" transform="translate(134.65 254.32) rotate(-34.12) scale(.8 1)"><tspan x="0" y="0"> </tspan></text>
    <text class="cls-1" transform="translate(177.94 222.31) rotate(-39.91) scale(.8 1)"><tspan x="0" y="0">p</tspan></text>
    <text class="cls-1" transform="translate(189.44 212.56) rotate(-41.65) scale(.8 1)"><tspan x="0" y="0">a</tspan></text>
    <text class="cls-1" transform="translate(200.63 202.49) rotate(-43.45) scale(.8 1)"><tspan x="0" y="0">r</tspan></text>
    <text class="cls-1" transform="translate(211.47 192.08) rotate(-45.31) scale(.8 1)"><tspan x="0" y="0">t</tspan></text>
    <text class="cls-1" transform="translate(221.99 181.3) rotate(-47.23) scale(.8 1)"><tspan x="0" y="0">n</tspan></text>
    <text class="cls-1" transform="translate(232.12 170.2) rotate(-49.2) scale(.8 1)"><tspan x="0" y="0">e</tspan></text>
    <text class="cls-1" transform="translate(241.85 158.75) rotate(-51.24) scale(.8 1)"><tspan x="0" y="0">r</tspan></text>
    <text class="cls-1" transform="translate(251.19 146.93) rotate(-53.34) scale(.8 1)"><tspan x="0" y="0"> </tspan></text>
    <text class="cls-1" transform="translate(280.75 102.11) rotate(-61.25) scale(.8 1)"><tspan x="0" y="0">p</tspan></text>
    <text class="cls-1" transform="translate(287.87 88.87) rotate(-63.56) scale(.8 1)"><tspan x="0" y="0">a</tspan></text>
    <text class="cls-1" transform="translate(294.44 75.38) rotate(-65.88) scale(.8 1)"><tspan x="0" y="0">r</tspan></text>
    <text class="cls-1" transform="translate(300.47 61.61) rotate(-68.23) scale(.8 1)"><tspan x="0" y="0">t</tspan></text>
    <text class="cls-1" transform="translate(305.94 47.57) rotate(-70.59) scale(.8 1)"><tspan x="0" y="0">n</tspan></text>
    <text class="cls-1" transform="translate(310.81 33.36) rotate(-72.94) scale(.8 1)"><tspan x="0" y="0">e</tspan></text>
    <text class="cls-1" transform="translate(315.1 18.96) rotate(-75.27) scale(.8 1)"><tspan x="0" y="0">r</tspan></text>
  </g>
</svg>