<?xml version="1.0" encoding="UTF-8"?>
<svg id="_圖層_2" data-name="圖層 2" xmlns="http://www.w3.org/2000/svg" xmlns:xlink="http://www.w3.org/1999/xlink" viewBox="0 0 163.71 96.19">
  <defs>
    <style>
      .cls-1 {
        filter: url(#drop-shadow-1);
      }
    </style>
    <filter id="drop-shadow-1" filterUnits="userSpaceOnUse">
      <feOffset dx="-3.58" dy="3.58"/>
      <feGaussianBlur result="blur" stdDeviation="8.36"/>
      <feFlood flood-color="#301d0d" flood-opacity=".1"/>
      <feComposite in2="blur" operator="in"/>
      <feComposite in="SourceGraphic"/>
    </filter>
  </defs>
  <g id="_圖層_1-2" data-name="圖層 1">
    <g class="cls-1">
      <path d="M4.08,41.91c-1.56-1.21-2.8-1.74-3.72-1.59-.16,.03-.27-.15-.34-.53-.06-.38,0-.58,.15-.61l2.53-.31c1.21-.06,2.06-.14,2.55-.22,1.9-.3,4.62-.81,8.18-1.51l5.35-.96c.11-.02,.19,.16,.25,.54,.06,.38,.04,.58-.07,.6-.92,.15-1.6,.52-2.03,1.11-.43,.59-.58,1.3-.45,2.12,.16,1.01,.74,2.15,1.72,3.42l15.17,19.66-7.11,5.53-15.96-20.41c-2.6-3.35-4.67-5.62-6.23-6.84Zm30.03,21.6l3.64,22.59c.32,1.96,.68,3.36,1.09,4.21,.41,.84,1.04,1.36,1.87,1.55,.84,.19,2.12,.15,3.86-.13,.16-.03,.27,.15,.33,.53,.06,.38,0,.58-.15,.61-1.79,.29-3.2,.48-4.24,.59l-6.11,.89-6,1.06c-1.07,.24-2.53,.5-4.37,.8-.11,.02-.19-.16-.25-.54-.06-.38-.04-.58,.07-.6,1.73-.28,2.98-.64,3.74-1.09,.76-.45,1.22-1.15,1.37-2.12,.15-.96,.07-2.4-.23-4.3l-3.5-21.73,8.88-2.31Zm4.62-24.6c-.25-1.52-.82-2.61-1.74-3.27-.91-.66-2.1-.88-3.56-.64-.16,.03-.27-.15-.34-.53-.06-.38,0-.58,.15-.61l4.32-.6c2.51-.27,4.74-.57,6.69-.88,.92-.15,2.02-.39,3.3-.73l2.99-.58c.11-.02,.19,.16,.25,.54,.06,.38,.04,.58-.07,.6-1.68,.27-3.54,1.82-5.59,4.65-2.05,2.83-3.72,6.23-5.03,10.21l-7.24,22.3-1.97-1.34,6.8-21.44c1-3.08,1.34-5.64,1.02-7.66Z"/>
      <path d="M80.43,85.02c-.1-.37-.08-.58,.08-.62,1.69-.48,2.87-.98,3.55-1.5,.68-.52,1.02-1.27,1.03-2.24,.01-.97-.25-2.38-.77-4.23l-12.12-42.83c-.52-1.85-1.04-3.17-1.55-3.96-.51-.79-1.21-1.24-2.09-1.36-.89-.11-2.15,.06-3.79,.52-.16,.04-.29-.12-.39-.49-.11-.37-.08-.58,.08-.62l33.57-9.5c.53-.15,.87,.05,1.03,.61l3.64,12.26c.04,.12-.08,.26-.36,.4-.27,.14-.46,.13-.57-.04-1.86-3.34-4.03-5.58-6.53-6.74-2.5-1.16-5.38-1.28-8.65-.35l-2.38,.67c-1.58,.45-2.63,1.18-3.14,2.19-.51,1.01-.53,2.35-.06,4.01l11.99,42.36c.51,1.79,1.17,3.03,2,3.73,.83,.7,1.87,.87,3.14,.51l2.61-.74c4.12-1.17,7.14-3.08,9.06-5.76,1.92-2.67,2.88-6.24,2.87-10.7-.04-.12,.05-.21,.26-.27,.16-.04,.32-.04,.47,.02,.16,.06,.25,.11,.26,.17,.83,4.96,1.81,9.41,2.92,13.36,.14,.5,.16,.87,.06,1.13s-.38,.46-.86,.59l-35,9.9c-.16,.04-.29-.12-.39-.49Zm20.94-34.05c-2.07-.98-4.67-1.03-7.78-.15l-10.69,3.03-.73-2.59,10.77-3.05c3.06-.87,5.24-2.15,6.52-3.84,1.29-1.7,1.62-3.65,.99-5.87-.05-.19,.07-.32,.36-.4,.29-.08,.46-.03,.51,.15l2.28,8.35,1.34,4.42c.7,2.07,1.22,3.72,1.57,4.95,.04,.12-.11,.23-.42,.32-.32,.09-.49,.07-.53-.05-.72-2.53-2.11-4.28-4.18-5.26Z"/>
      <path d="M155.4,56.33c.74,.68,1.67,.97,2.81,.87,1.13-.1,2.77-.65,4.91-1.64,.15-.07,.31,.07,.47,.42,.16,.35,.17,.56,.02,.63-2.04,.95-3.65,1.66-4.82,2.13l-6.53,2.93-5.41,2.62c-.97,.52-2.3,1.17-3.99,1.96-.15,.07-.3-.07-.47-.42s-.17-.56-.02-.63c1.59-.74,2.68-1.42,3.27-2.05,.59-.62,.81-1.42,.67-2.38-.14-.96-.62-2.31-1.43-4.05l-18.76-40.36c-.81-1.74-1.53-2.96-2.16-3.66-.63-.7-1.39-1.03-2.28-1.01-.89,.03-2.11,.4-3.66,1.12-.15,.07-.3-.07-.47-.42s-.17-.56-.02-.63l4-1.75c2.34-.95,4.19-1.73,5.53-2.36,1.19-.55,2.57-1.3,4.13-2.24,.62-.36,1.41-.8,2.38-1.32,.97-.52,2.1-1.08,3.39-1.68,5.08-2.36,9.65-2.98,13.74-1.88,4.08,1.11,7.33,4.25,9.73,9.42,1.67,3.6,2.3,7.03,1.87,10.26-.43,3.24-1.61,6.08-3.52,8.53-1.92,2.45-4.2,4.28-6.83,5.51-1.34,.62-2.58,1.02-3.71,1.19-.1,.05-.22-.08-.35-.37-.08-.17-.12-.37-.13-.58,0-.21,.05-.31,.18-.3,.85-.11,1.75-.39,2.7-.83,2.29-1.06,3.61-3.2,3.97-6.4,.36-3.2-.53-7.1-2.67-11.69-2.13-4.59-4.62-7.75-7.44-9.47-2.83-1.72-5.83-1.85-9.02-.37-1.39,.65-2.16,1.47-2.31,2.45-.15,.99,.29,2.58,1.32,4.79l18.52,39.84c.86,1.86,1.67,3.13,2.41,3.81Z"/>
    </g>
  </g>
</svg>